<svg xmlns="http://www.w3.org/2000/svg" width="231" height="56" viewBox="0 0 231 56" fill="none">
  <path d="M230.657 25.5338L183.7 20.924C183.638 21.8795 183.968 21.9577 184.324 21.9968C186.165 22.2036 188.01 22.388 189.847 22.6171C191.886 22.8741 193.92 23.1758 195.955 23.4552C196.587 23.539 197.218 23.567 197.85 23.6452C198.212 23.6707 198.565 23.8099 198.885 24.0531C190.273 24.4387 181.72 22.8629 173.101 22.7735L174.535 23.3714C174.659 24.1704 174.395 24.299 173.988 24.2934C172.384 24.2543 170.779 24.2934 169.175 24.2096C167.105 24.1313 165.039 23.9358 162.974 23.919C161.927 23.919 160.885 24.3157 159.838 24.299C159.253 24.299 158.676 23.8184 158.083 23.5446C157.928 23.472 157.742 23.2261 157.641 23.2932C156.68 23.9078 155.754 23.1088 154.804 23.1982C153.855 23.2876 152.866 23.1088 151.897 23.1311C151.08 23.1311 150.266 23.7737 149.44 23.1591C149.336 23.0753 149.235 22.9803 149.018 22.7903L150.06 21.7007C148.588 21.0805 147.309 21.3766 145.983 21.7566L148.309 22.997L147.983 24.5728L148.979 24.9136C148.979 24.9863 148.979 25.0589 148.979 25.1315L147.549 25.3886C147.549 25.545 147.549 25.6959 147.549 25.8523C148.394 26.0256 149.235 26.1932 150.076 26.3776C150.82 26.5396 151.556 26.7631 152.3 26.8861C152.87 26.9755 153.463 26.9419 154.025 26.9866C154.858 27.0537 155.688 27.1822 156.521 27.2157C158.629 27.2996 160.738 27.2884 162.842 27.4225C164.946 27.5566 167.055 27.8248 169.159 28.0651C173.949 28.6238 178.743 29.1826 183.538 29.7079C188.839 30.2666 194.141 30.8254 199.427 31.3842C205.152 32.0044 210.876 32.6079 216.596 33.3119C219.79 33.7031 222.972 34.2786 226.157 34.7871C226.477 34.8619 226.794 34.9607 227.107 35.0832C227.025 35.3402 226.994 35.5246 226.96 35.5246C225.491 35.5246 224.018 35.5693 222.549 35.4855C221.287 35.4328 220.028 35.2761 218.778 35.0162C214.152 33.9589 209.484 33.3299 204.803 33.1331C202.664 33.0493 200.54 32.7252 198.397 32.5743C197.792 32.5296 197.152 32.9096 196.575 32.742C195.87 32.5352 195.199 32.9096 194.432 32.4849C193.467 31.9262 192.289 32.2 191.203 32.1385C186.165 31.8368 181.1 31.5797 176.05 31.2277C172.973 31.0154 169.907 30.5684 166.83 30.4119C165.28 30.3393 163.749 30.6913 162.21 30.8366C161.873 30.8645 161.532 30.8366 161.195 30.8366C158.032 30.8366 154.885 30.4007 151.731 30.194C149.332 30.0375 146.929 30.194 144.526 30.194C142.286 30.194 140.046 30.194 137.81 30.194C134.814 30.194 131.822 30.1437 128.83 30.1325C128.428 30.1159 128.032 30.2863 127.702 30.6186C127.915 30.7934 128.145 30.9196 128.384 30.993C131.411 31.2165 134.442 31.4065 137.469 31.6077L145.995 32.1664C148.417 32.3341 150.839 32.5296 153.262 32.6973C156.928 32.9543 160.594 33.2169 164.26 33.4349C165.384 33.5019 166.52 33.3399 167.64 33.4349C168.95 33.5578 170.244 33.8595 171.547 34.0886C171.547 34.2115 171.547 34.3401 171.547 34.463L165.346 34.0607C165.346 34.1277 165.346 34.1892 165.346 34.2562C165.952 34.5988 166.573 34.8807 167.206 35.1C167.867 35.2102 168.532 35.2588 169.198 35.2453L171.349 35.3402C172.023 35.3738 172.698 35.4576 173.372 35.4241C174.046 35.3905 174.767 36.0387 175.542 34.9715L173.949 34.653C174.085 34.3959 174.147 34.1724 174.213 34.1668C176.717 33.939 179.231 34.0757 181.716 34.5747C183.08 34.8597 184.429 35.4073 185.813 35.0385C187.665 35.994 189.657 35.3738 191.669 36.3516C187.568 36.4522 183.634 35.4967 179.685 35.385C179.685 35.5526 179.658 35.7202 179.643 35.8878L182.483 36.5137C182.483 36.6031 182.483 36.6981 182.483 36.793L173.031 36.0108C173.488 36.9886 173.984 36.8042 174.387 36.8545C177.656 37.2755 180.925 37.6703 184.196 38.0391C187.522 38.4079 190.847 38.7376 194.176 39.0561C196.955 39.3187 199.737 39.5366 202.516 39.7936C202.894 39.8323 203.248 40.0783 203.505 40.4809C203.141 40.5497 202.775 40.5851 202.408 40.5871C200.687 40.4698 198.97 40.3356 197.253 40.168C195.536 40.0004 193.723 39.7825 191.959 39.6092C189.99 39.4137 188.018 39.246 186.053 39.0505C184.169 38.8549 182.286 38.5923 180.402 38.4135C174.422 37.8547 168.438 37.2959 162.439 37.1562C159.366 37.0892 156.296 36.7931 153.223 36.6478C151.862 36.5863 150.51 36.6478 149.064 36.6478C149.386 37.3015 149.839 37.1451 150.227 37.1674C152.246 37.2848 154.265 37.3351 156.285 37.4468C159.49 37.6256 162.695 37.7933 165.896 38.0056C170.03 38.3148 174.156 38.6556 178.275 39.0281C180.418 39.2181 182.561 39.4863 184.7 39.7322C184.944 39.7601 185.285 39.7322 185.413 39.9501C185.999 40.9168 186.781 40.7938 187.526 40.8721C188.618 40.9838 189.715 41.0397 190.808 41.1459C190.944 41.1459 191.068 41.3079 191.405 41.537C190.184 42.1908 189.149 41.9002 188.138 41.8611C186.886 41.8164 185.638 41.6208 184.386 41.5873C181.825 41.5202 179.255 41.5873 176.693 41.4644C174.554 41.3582 172.43 41.0006 170.283 40.8218C167.57 40.5927 164.857 40.3859 162.144 40.263C160.296 40.1736 158.447 40.263 156.595 40.2127C154.866 40.1736 153.138 40.0563 151.413 39.9948C149.808 39.9389 148.204 39.9222 146.599 39.8551C145.472 39.8104 144.34 39.7825 143.22 39.6204C141.565 39.3801 139.945 39.6931 138.317 39.9724C137.988 40.0648 137.65 40.0648 137.321 39.9724C135.426 39.1678 133.469 39.3187 131.539 39.2293C129.938 39.1567 128.338 39.2572 126.737 39.3019C126.344 39.3048 125.959 39.4529 125.617 39.7322C125.817 39.8504 126.022 39.9529 126.229 40.0395C126.958 40.2965 127.687 40.548 128.419 40.7659C128.705 40.8357 128.994 40.8693 129.283 40.8665L135.988 41.1515C136.073 41.1598 136.159 41.1598 136.244 41.1515C138.476 40.7156 140.67 41.5649 142.887 41.6655C144.859 41.7549 146.816 42.2802 148.789 42.5093C150.293 42.6769 151.808 42.6769 153.32 42.7495C155.599 42.8669 157.877 42.9563 160.152 43.1072C166.012 43.4983 171.872 43.8894 177.732 44.3476C180.057 44.5264 182.383 44.9064 184.677 45.1858C184.82 45.1858 184.964 45.3031 185.127 45.711C184.701 45.8404 184.27 45.9263 183.836 45.968C182.491 45.968 181.142 46.0127 179.802 45.8954C178.461 45.7781 177.023 45.5434 175.639 45.2752C172.598 44.6457 169.523 44.4306 166.454 44.6326C165.516 44.7052 164.594 44.2526 163.671 44.6326C162.121 43.6436 160.47 44.2526 158.866 44.0738C157.261 43.895 155.661 43.9676 154.06 43.9732C151.083 43.9732 148.112 43.8894 145.146 43.7218C144.669 43.7218 144.189 43.7609 143.596 43.7888C143.914 44.7835 144.398 44.6046 144.759 44.6382C146.309 44.7667 147.882 44.817 149.44 44.9176C154.924 45.2808 160.408 45.6831 165.896 46.0016C166.741 46.0519 167.152 46.823 167.543 47.4488L171.632 48.097C170.779 49.153 169.973 48.4378 169.213 48.7228C169.182 49.0189 169.151 49.3542 169.109 49.8403L139.84 49.0469L139.569 49.98C139.713 50.0471 139.821 50.1309 139.84 50.1029C140.228 49.4883 140.693 49.7006 141.147 49.7509C143.949 50.0638 146.754 50.3767 149.557 50.7176C150.804 50.8685 152.045 51.1478 153.296 51.2764C153.824 51.3266 154.362 51.0584 154.897 51.0584C156.668 51.0584 158.439 51.1031 160.21 51.1311C160.252 51.1255 160.293 51.1255 160.334 51.1311C161.195 51.3825 161.978 50.4605 162.962 51.159C163.737 51.7178 164.861 51.3546 165.83 51.4105C166.799 51.4663 167.683 51.5278 168.609 51.5893C169.535 51.6507 170.489 51.5222 171.361 51.8575C171.95 52.0866 172.581 51.7066 173.198 52.4498C173.616 52.9471 174.531 52.9583 175.17 52.148C175.457 51.7848 175.945 51.1646 176.174 52.3659C176.174 52.433 176.391 52.5112 176.41 52.4721C177.042 51.3546 177.484 52.6733 178.123 52.7403L178.666 51.4328C179.518 51.5599 180.359 51.8088 181.177 52.176C182.251 52.7347 183.456 52.7906 184.611 52.9918C185.386 53.1203 186.192 53.0979 186.983 53.1818C187.867 53.2823 188.75 53.4332 189.634 53.5561C192.517 53.951 195.399 54.3477 198.28 54.7463C199.567 54.9251 200.85 55.1207 202.136 55.4001C201.218 55.4001 200.299 55.4504 199.385 55.4001C196.132 55.184 192.882 54.9437 189.634 54.6793C185.929 54.3831 182.224 53.9808 178.515 53.7629C174.725 53.5338 170.926 53.4891 167.132 53.3382C164.687 53.2376 162.245 53.07 159.8 52.9638C158.032 52.8856 156.261 52.8633 154.49 52.8018C148.964 52.623 143.441 52.3883 137.914 52.243C135.136 52.1816 132.353 52.2933 129.57 52.3548C125.947 52.433 122.323 52.5503 118.719 52.6286C115.238 52.6993 111.759 52.7515 108.282 52.785C104.817 52.8186 101.356 52.785 97.8912 52.8186C92.0236 52.8633 86.156 52.8856 80.2884 52.9974C77.6297 53.0476 74.9788 53.3326 72.3202 53.4276C68.1862 53.5692 64.0523 53.6679 59.9183 53.7238C54.7677 53.8132 49.6171 53.8076 44.4703 53.9361C41.1451 54.0143 37.8237 54.3105 34.4984 54.4278C30.5802 54.5619 26.662 54.7184 22.74 54.6681C17.973 54.601 13.2022 54.3664 8.4352 54.1093C5.7223 53.9752 3.03652 53.6847 0.339119 53.4779C-1.04446 53.3773 -2.34278 53.6455 -3.45894 55.0201C-3.76899 55.4057 -4.23405 55.5006 -4.74175 55.7744C-4.84252 54.439 -3.89688 54.4446 -3.76511 53.3717C-5.04701 53.0845 -6.34358 52.9555 -7.64069 52.9862C-9.69474 53.1371 -11.7566 53.2265 -13.7951 53.9137C-15.1244 54.3608 -16.539 54.2937 -18.128 54.4725L-17.3219 53.6232L-19 51.9469C-18.3954 51.4384 -17.8373 51.0808 -17.7288 50.0359C-17.6823 49.5889 -17.3102 49.1307 -17.0079 48.8457C-16.2096 48.0802 -15.5314 47.2532 -15.5507 45.7054C-15.5507 45.5713 -15.4035 45.4316 -15.3492 45.3422L-16.8646 41.9337L-14.9539 40.7827C-14.9772 39.1064 -14.6904 37.3853 -16.3956 37.2345C-15.7716 36.0331 -16.8762 34.6474 -15.7639 33.5075L-17.6087 32.5241C-17.4867 32.1452 -17.326 31.7949 -17.132 31.4847C-16.9509 31.3283 -16.8181 31.0782 -16.7605 30.7854C-16.7028 30.4926 -16.7248 30.1792 -16.8219 29.909C-16.9072 29.5793 -16.7173 29.1211 -16.7095 28.7244C-16.6672 28.3329 -16.7021 27.9321 -16.8103 27.5678C-17.3839 26.3497 -17.3839 25.9697 -16.6359 25.1092C-16.4731 24.9248 -16.229 24.8354 -16.1166 24.6119C-15.9305 24.2375 -15.6205 23.6005 -15.7096 23.3993C-16.2018 22.2818 -15.7949 21.0358 -16.0972 19.935C-16.2832 19.2868 -16.4615 18.633 -16.6785 17.8675C-16.5545 17.1355 -15.8298 16.4035 -16.4421 15.3307C-16.5506 15.1407 -16.2716 14.4646 -16.1437 14.0344C-15.9654 13.4253 -15.7561 12.8274 -15.5624 12.2407C-15.3686 11.654 -15.3802 11.0841 -15.9305 10.9388C-15.7436 10.0478 -15.4351 9.21961 -15.0231 8.50285C-14.6112 7.78608 -14.104 7.19517 -13.5316 6.76478C-12.7396 6.17738 -12.0856 5.26566 -11.6519 4.14415C-11.0706 2.70252 -10.1443 2.11582 -9.05139 1.94818C-7.66781 1.73585 -6.28811 1.47882 -4.90065 1.33353C-0.823549 0.914458 3.23806 0.378039 7.33842 0.215996C9.90017 0.104242 12.4774 0.540082 15.0469 0.774765C16.7638 0.914458 18.4846 1.11561 20.2053 1.20501C22.1431 1.31118 24.0809 1.38942 26.0187 1.35589C28.8013 1.3056 31.584 1.09326 34.3706 1.06532C36.4324 1.06532 38.5097 0.75241 40.5443 1.59056C40.9977 1.74128 41.4629 1.80515 41.9279 1.78054C46.7414 1.92582 51.5587 2.04875 56.3722 2.19962C59.1859 2.28344 62.0073 2.64664 64.8093 2.42872C66.5766 2.29461 68.3283 2.84221 70.0646 2.46224C71.704 2.09904 73.2968 2.40636 74.9091 2.65222C75.8421 2.8529 76.7895 2.87546 77.7266 2.71929C78.2053 2.61258 78.6753 2.43661 79.1296 2.19404C79.6412 1.90907 80.2922 2.19404 80.9123 2.26109C81.5324 2.32815 82.168 2.39519 82.7997 2.3896C83.4314 2.38401 84.0322 2.20521 84.6445 2.23874C85.1755 2.23874 85.6948 2.51253 86.2258 2.60194C86.5807 2.63007 86.9365 2.63007 87.2915 2.60194C87.5323 2.89062 87.8065 3.11573 88.1015 3.26687C88.1825 3.29867 88.267 3.30676 88.3502 3.29066C88.4333 3.27456 88.5134 3.2346 88.5856 3.17314C88.6579 3.11167 88.7209 3.02997 88.7708 2.93282C88.8208 2.83567 88.8568 2.72506 88.8767 2.60753C89.0549 1.79173 89.4541 1.69673 89.9812 2.04876C92.1709 3.47362 94.5234 2.81428 96.8177 3.31158L97.1704 1.96495C97.399 2.06553 97.7168 2.09345 97.7556 2.24991C98.2013 4.22236 99.3639 3.40658 100.244 3.57421C100.596 3.64126 100.976 3.38421 101.561 3.21099L100.542 2.47901C101.395 1.92024 101.705 2.06553 102.569 3.41775L103.108 2.53489C103.193 2.53489 103.294 2.45666 103.352 2.50136C105.069 3.85917 106.956 3.02101 108.751 3.38421C109.581 3.57564 110.425 3.61694 111.262 3.50714C111.805 3.41774 112.146 4.69174 112.715 3.81447C113.828 4.75879 115.017 3.81447 116.203 4.12179C117.242 4.41794 118.343 4.2112 119.428 4.39001C120.912 4.64145 122.431 4.46264 123.931 4.50734C127.032 4.59675 130.152 4.73644 133.264 4.82025C136.461 4.90407 139.662 4.88172 142.86 5.01582C145.007 5.11082 147.15 5.42931 149.301 5.57459C150.649 5.67517 152.014 5.68635 153.351 5.73664C154.354 5.77017 155.362 5.78692 156.37 5.83162C157.711 5.89309 159.052 6.02161 160.393 6.0272C160.787 5.9292 161.168 5.74054 161.52 5.46843C161.586 6.27305 162.129 6.11102 162.602 6.13896C164.284 6.22277 165.966 6.2507 167.64 6.39039C171.38 6.7033 175.116 6.94916 178.844 7.69791C182.014 8.3405 185.243 8.37403 188.444 8.72047C190.339 8.92163 192.227 9.20101 194.118 9.45805C194.366 9.49157 194.699 9.45805 194.839 9.68155C195.843 11.2293 197.164 10.6762 198.377 10.9108C198.858 10.9468 199.328 11.1216 199.761 11.4249C199.66 11.4932 199.553 11.5402 199.443 11.5646C194.924 11.5646 190.405 11.6596 185.902 10.8885C184.107 10.4869 182.287 10.3819 180.476 10.5756C177.445 11.0673 174.414 10.38 171.364 11.1344C171.729 11.2293 172.093 11.3634 172.461 11.4081C175.112 11.7322 177.767 12.0228 180.414 12.3692C180.99 12.4264 181.557 12.615 182.092 12.928C182.411 13.156 182.759 13.2861 183.115 13.3102C183.47 13.3342 183.825 13.2516 184.158 13.0677C184.41 12.928 184.789 13.3694 185.099 13.3303C188.429 12.9448 191.614 14.6769 194.932 14.6993C196.974 14.6993 199.02 15.2581 201.063 15.5766L201.098 15.5263C200.933 15.7519 200.736 15.9235 200.52 16.0296C200.305 16.1357 200.076 16.1736 199.85 16.1409C198.858 15.9509 197.846 15.9398 196.842 15.8895C196.193 15.836 195.541 15.9093 194.905 16.1074C197.428 17.007 200.036 16.7221 202.551 17.577C192.653 16.7723 182.786 15.5989 172.887 14.7105C172.887 14.8669 172.868 15.029 172.856 15.1854L179.36 16.0459L179.825 17.4038C179.716 17.482 179.615 17.6273 179.519 17.6217C177.709 17.5211 175.899 17.4037 174.093 17.292C173.17 17.2305 172.248 17.1635 171.326 17.1132C165.652 16.7947 159.978 16.4482 154.304 16.1745C152.134 16.0683 149.963 16.1744 147.793 16.0795C145.948 16.018 144.107 15.8001 142.259 15.761C138.953 15.6827 135.647 15.6716 132.337 15.6604C127.532 15.6604 122.722 15.6604 117.912 15.6604C113.82 15.6604 109.727 15.5319 105.639 15.5319C104.688 15.5482 103.747 15.8093 102.86 16.303C104.05 16.3477 105.239 16.4315 106.425 16.4315C110.816 16.4315 115.203 16.3421 119.602 16.4315C125.71 16.5488 131.814 16.7891 137.922 16.9903C144.371 17.1914 150.824 17.3535 157.273 17.6049C160.269 17.7222 163.257 18.0128 166.253 18.2028C168.148 18.3201 170.051 18.3425 171.946 18.4989C175.403 18.7895 178.856 19.1359 182.313 19.4768C187.028 19.935 191.743 20.4043 196.459 20.8849C198.482 21.086 200.501 21.3375 202.524 21.5442C205.094 21.8068 207.667 21.9801 210.233 22.3042C213.131 22.6674 216.019 23.1703 218.914 23.5837C220.964 23.8799 223.018 24.1146 225.072 24.3939C226.746 24.623 228.417 24.8577 230.087 25.1371C230.296 25.1706 230.475 25.478 230.684 25.6568L230.657 25.5338ZM148.25 33.7757L147.723 33.351C147.696 33.5522 147.673 33.7589 147.65 33.9601L148.281 33.7142C148.669 34.0663 149.029 34.4686 149.487 33.8483C149.06 32.9711 148.65 33.8763 148.25 33.7757ZM122.261 30.7751C122.869 30.8757 123.501 31.1662 124.078 31.021C124.656 30.8757 125.326 31.3953 125.795 30.1605C124.745 30.1605 123.834 30.1213 122.924 30.194C122.699 30.194 122.49 30.5851 122.265 30.7863C121.792 30.4957 121.323 29.814 120.656 30.9092L122.261 30.7751ZM161.474 19.6388C161.861 19.9182 161.978 20.1026 162.11 20.1026C162.79 20.0246 163.473 19.9966 164.156 20.0188C165.815 20.2423 167.462 20.6502 169.124 20.8402C170.419 20.9855 171.736 20.7955 173.031 20.9799C174.325 21.1643 175.585 20.4211 176.875 20.9799C177.444 21.1807 178.026 21.2894 178.612 21.304C178.931 21.2651 179.247 21.1771 179.553 21.0413C178.205 20.1864 172.965 19.6109 164.191 19.2924C163.381 19.2477 162.532 18.9124 161.474 19.6612V19.6388ZM149.781 9.47481C149.514 9.27924 149.332 9.01103 149.181 9.05014C147.63 9.43569 146.123 8.62547 144.58 8.659C143.189 8.68693 141.794 8.60871 140.402 8.57518C140.185 8.53964 139.965 8.58229 139.763 8.69931C139.56 8.81633 139.38 9.00406 139.24 9.24571C139.325 9.37982 139.356 9.45804 139.387 9.46362C142.019 9.67596 144.65 9.93299 147.285 10.0727C148.064 10.1341 148.936 10.4247 149.781 9.49715V9.47481ZM132.38 48.8625C132.64 49.2201 132.768 49.5609 132.923 49.5833C134.585 49.818 136.244 50.0359 137.907 50.1812C138.368 50.2203 138.6 49.7956 138.294 48.8625H132.38ZM147.192 33.5969C146.87 33.4473 146.54 33.3407 146.204 33.2784C144.266 33.2113 142.329 33.1778 140.414 33.1443C140.299 33.1729 140.188 33.2276 140.085 33.3063C140.127 33.4572 140.17 33.6025 140.209 33.7533C142.1 33.9321 143.987 34.1166 145.879 34.273C146.211 34.2907 146.544 34.2551 146.871 34.1668C146.96 34.1445 147.022 33.9098 147.192 33.5969ZM142.247 18.5772C142.918 19.6165 143.763 19.3371 144.573 19.4656C145.383 19.5941 146.173 19.7897 146.96 19.9461C147.262 19.203 147.297 18.6219 146.65 18.5939C145.173 18.5436 143.704 18.5772 142.247 18.5772ZM122.548 18.3537C123.478 19.3203 124.485 18.6051 125.365 18.8342C126.257 18.9583 127.154 18.9732 128.047 18.8789C127.008 17.9681 123.881 17.7837 122.548 18.3537ZM144.181 36.4131C142.704 35.4408 141.433 35.6085 140.061 36.2231C140.918 36.888 142.693 36.9942 144.181 36.4131ZM136.256 23.9637C135.87 23.5787 135.42 23.3502 134.952 23.302C134.485 23.2538 134.016 23.3878 133.597 23.6899C134.186 24.6454 135.209 24.7516 136.256 23.9637ZM158.346 34.4127C157.459 33.6416 156.126 33.6863 155.428 34.4127H158.346ZM122.629 39.1902C123.571 39.7992 123.792 39.7936 124.733 39.1902H122.629ZM134.744 18.2363V18.8286L136.748 19.0633C136.748 18.8901 136.748 18.7224 136.779 18.5492L134.744 18.2363ZM179.937 21.3431C180.398 21.4939 180.674 21.6001 180.949 21.6504C180.949 21.6504 181.1 21.1978 181.046 21.0916C180.794 20.4993 180.487 20.4658 179.929 21.3431H179.937ZM161.838 34.7535L163.028 34.2562C162.416 33.9601 162.11 33.8204 161.83 34.7479L161.838 34.7535ZM148.181 36.7428C148.181 36.6701 148.181 36.6031 148.181 36.536H146.859V36.7428H148.181ZM191.917 15.7051C191.917 15.7721 191.917 15.8392 191.917 15.9062H192.885C192.885 15.8392 192.885 15.7721 192.885 15.7051H191.917ZM137.472 24.718C137.418 24.0587 137.178 23.8352 136.717 24.1146L137.472 24.718ZM144.685 36.4522C144.685 36.5863 144.72 36.7204 144.735 36.8545C145.045 36.5584 145.46 37.0277 145.933 36.2957L144.685 36.4522ZM120.319 30.5404C120.129 30.4231 120.025 30.3001 119.932 30.3113C119.839 30.3225 119.773 30.4901 119.695 30.5851C119.788 30.6634 119.881 30.7974 119.978 30.803C120.075 30.8086 120.153 30.6969 120.319 30.5572V30.5404Z" fill="#53565B" fill-opacity="0.9"/>
</svg>